<mxfile host="app.diagrams.net" agent="Mozilla/5.0 (Windows NT 10.0; Win64; x64) AppleWebKit/537.36 (KHTML, like Gecko) Chrome/128.0.0.0 Safari/537.36 Edg/128.0.0.0" version="24.7.12">
  <diagram name="Página-1" id="Ma5MOXphOJBr6CFje7FS">
    <mxGraphModel grid="1" page="1" gridSize="10" guides="1" tooltips="1" connect="1" arrows="1" fold="1" pageScale="1" pageWidth="827" pageHeight="1169" math="0" shadow="0">
      <root>
        <mxCell id="0" />
        <mxCell id="1" parent="0" />
        <mxCell id="crkH9k9LLb0rwA_Ul11M-1" value="" style="rounded=0;whiteSpace=wrap;html=1;" vertex="1" parent="1">
          <mxGeometry x="170" y="50" width="980" height="750" as="geometry" />
        </mxCell>
        <mxCell id="crkH9k9LLb0rwA_Ul11M-2" value="Usuario" style="shape=umlActor;verticalLabelPosition=bottom;verticalAlign=top;html=1;outlineConnect=0;" vertex="1" parent="1">
          <mxGeometry x="88" y="455" width="30" height="60" as="geometry" />
        </mxCell>
        <mxCell id="crkH9k9LLb0rwA_Ul11M-5" value="&lt;h1 style=&quot;margin-top: 0px;&quot;&gt;&lt;font style=&quot;font-size: 12px;&quot;&gt;Chatbot&lt;/font&gt;&lt;/h1&gt;" style="text;html=1;whiteSpace=wrap;overflow=hidden;rounded=0;align=center;verticalAlign=middle;" vertex="1" parent="1">
          <mxGeometry x="570" y="70" width="180" height="40" as="geometry" />
        </mxCell>
        <mxCell id="crkH9k9LLb0rwA_Ul11M-6" value="Enviar mensaje a IA" style="ellipse;whiteSpace=wrap;html=1;" vertex="1" parent="1">
          <mxGeometry x="260" y="356" width="120" height="80" as="geometry" />
        </mxCell>
        <mxCell id="crkH9k9LLb0rwA_Ul11M-7" value="" style="endArrow=none;html=1;rounded=0;exitX=0.5;exitY=0.5;exitDx=0;exitDy=0;exitPerimeter=0;entryX=0;entryY=0.5;entryDx=0;entryDy=0;" edge="1" parent="1" source="crkH9k9LLb0rwA_Ul11M-2" target="crkH9k9LLb0rwA_Ul11M-6">
          <mxGeometry width="50" height="50" relative="1" as="geometry">
            <mxPoint x="390" y="420" as="sourcePoint" />
            <mxPoint x="440" y="370" as="targetPoint" />
          </mxGeometry>
        </mxCell>
        <mxCell id="crkH9k9LLb0rwA_Ul11M-8" value="IA" style="shape=umlActor;verticalLabelPosition=bottom;verticalAlign=top;html=1;outlineConnect=0;" vertex="1" parent="1">
          <mxGeometry x="1250" y="436" width="30" height="60" as="geometry" />
        </mxCell>
        <mxCell id="crkH9k9LLb0rwA_Ul11M-9" value="Enviar mensaje personalizado a usuario" style="ellipse;whiteSpace=wrap;html=1;" vertex="1" parent="1">
          <mxGeometry x="890" y="560" width="120" height="80" as="geometry" />
        </mxCell>
        <mxCell id="crkH9k9LLb0rwA_Ul11M-11" value="" style="endArrow=none;html=1;rounded=0;entryX=0.5;entryY=0.5;entryDx=0;entryDy=0;entryPerimeter=0;exitX=1;exitY=0.5;exitDx=0;exitDy=0;" edge="1" parent="1" source="crkH9k9LLb0rwA_Ul11M-9" target="crkH9k9LLb0rwA_Ul11M-8">
          <mxGeometry width="50" height="50" relative="1" as="geometry">
            <mxPoint x="390" y="420" as="sourcePoint" />
            <mxPoint x="440" y="370" as="targetPoint" />
          </mxGeometry>
        </mxCell>
        <mxCell id="crkH9k9LLb0rwA_Ul11M-12" value="Recibir soluciones personalizadas" style="ellipse;whiteSpace=wrap;html=1;" vertex="1" parent="1">
          <mxGeometry x="240" y="560" width="120" height="80" as="geometry" />
        </mxCell>
        <mxCell id="crkH9k9LLb0rwA_Ul11M-13" value="" style="endArrow=none;html=1;rounded=0;exitX=0.5;exitY=0.5;exitDx=0;exitDy=0;exitPerimeter=0;entryX=0;entryY=0.5;entryDx=0;entryDy=0;" edge="1" parent="1">
          <mxGeometry width="50" height="50" relative="1" as="geometry">
            <mxPoint x="93" y="-14" as="sourcePoint" />
            <mxPoint x="260" y="-80" as="targetPoint" />
          </mxGeometry>
        </mxCell>
        <mxCell id="crkH9k9LLb0rwA_Ul11M-14" value="" style="endArrow=classic;html=1;rounded=0;exitX=1;exitY=0;exitDx=0;exitDy=0;dashed=1;entryX=0;entryY=0.5;entryDx=0;entryDy=0;" edge="1" parent="1">
          <mxGeometry relative="1" as="geometry">
            <mxPoint x="248" y="-11" as="sourcePoint" />
            <mxPoint x="371" y="-60" as="targetPoint" />
          </mxGeometry>
        </mxCell>
        <mxCell id="crkH9k9LLb0rwA_Ul11M-15" value="&amp;lt;include&amp;gt;" style="edgeLabel;resizable=0;html=1;;align=center;verticalAlign=middle;" connectable="0" vertex="1" parent="crkH9k9LLb0rwA_Ul11M-14">
          <mxGeometry relative="1" as="geometry">
            <mxPoint x="4" as="offset" />
          </mxGeometry>
        </mxCell>
        <mxCell id="crkH9k9LLb0rwA_Ul11M-16" value="" style="endArrow=classic;html=1;rounded=0;dashed=1;" edge="1" parent="1">
          <mxGeometry relative="1" as="geometry">
            <mxPoint x="363" y="-10" as="sourcePoint" />
            <mxPoint x="493" y="-60" as="targetPoint" />
          </mxGeometry>
        </mxCell>
        <mxCell id="crkH9k9LLb0rwA_Ul11M-17" value="&amp;lt;extend&amp;gt;" style="edgeLabel;resizable=0;html=1;;align=center;verticalAlign=middle;" connectable="0" vertex="1" parent="crkH9k9LLb0rwA_Ul11M-16">
          <mxGeometry relative="1" as="geometry">
            <mxPoint x="4" as="offset" />
          </mxGeometry>
        </mxCell>
        <mxCell id="crkH9k9LLb0rwA_Ul11M-18" value="Recibir información/consultas" style="ellipse;whiteSpace=wrap;html=1;" vertex="1" parent="1">
          <mxGeometry x="860" y="310" width="130" height="80" as="geometry" />
        </mxCell>
        <mxCell id="crkH9k9LLb0rwA_Ul11M-19" value="" style="endArrow=none;html=1;rounded=0;entryX=0.5;entryY=0.5;entryDx=0;entryDy=0;entryPerimeter=0;exitX=1;exitY=0.5;exitDx=0;exitDy=0;" edge="1" parent="1" source="crkH9k9LLb0rwA_Ul11M-18" target="crkH9k9LLb0rwA_Ul11M-8">
          <mxGeometry width="50" height="50" relative="1" as="geometry">
            <mxPoint x="730" y="300" as="sourcePoint" />
            <mxPoint x="715" y="416" as="targetPoint" />
          </mxGeometry>
        </mxCell>
        <mxCell id="crkH9k9LLb0rwA_Ul11M-20" value="" style="endArrow=classic;html=1;rounded=0;dashed=1;entryX=1;entryY=0.5;entryDx=0;entryDy=0;exitX=0;exitY=0.5;exitDx=0;exitDy=0;" edge="1" parent="1" source="crkH9k9LLb0rwA_Ul11M-18" target="crkH9k9LLb0rwA_Ul11M-6">
          <mxGeometry relative="1" as="geometry">
            <mxPoint x="373" as="sourcePoint" />
            <mxPoint x="503" y="-50" as="targetPoint" />
          </mxGeometry>
        </mxCell>
        <mxCell id="crkH9k9LLb0rwA_Ul11M-21" value="&amp;lt;extend&amp;gt;" style="edgeLabel;resizable=0;html=1;;align=center;verticalAlign=middle;" connectable="0" vertex="1" parent="crkH9k9LLb0rwA_Ul11M-20">
          <mxGeometry relative="1" as="geometry">
            <mxPoint x="4" as="offset" />
          </mxGeometry>
        </mxCell>
        <mxCell id="crkH9k9LLb0rwA_Ul11M-22" value="" style="endArrow=classic;html=1;rounded=0;dashed=1;entryX=0.5;entryY=1;entryDx=0;entryDy=0;exitX=0.5;exitY=0;exitDx=0;exitDy=0;" edge="1" parent="1" source="crkH9k9LLb0rwA_Ul11M-9" target="crkH9k9LLb0rwA_Ul11M-18">
          <mxGeometry relative="1" as="geometry">
            <mxPoint x="450" y="330" as="sourcePoint" />
            <mxPoint x="380" y="370" as="targetPoint" />
          </mxGeometry>
        </mxCell>
        <mxCell id="crkH9k9LLb0rwA_Ul11M-23" value="&amp;lt;extend&amp;gt;" style="edgeLabel;resizable=0;html=1;;align=center;verticalAlign=middle;" connectable="0" vertex="1" parent="crkH9k9LLb0rwA_Ul11M-22">
          <mxGeometry relative="1" as="geometry">
            <mxPoint x="4" as="offset" />
          </mxGeometry>
        </mxCell>
        <mxCell id="crkH9k9LLb0rwA_Ul11M-24" value="" style="endArrow=classic;html=1;rounded=0;dashed=1;entryX=1;entryY=0.5;entryDx=0;entryDy=0;exitX=0;exitY=0.5;exitDx=0;exitDy=0;" edge="1" parent="1" source="crkH9k9LLb0rwA_Ul11M-9" target="crkH9k9LLb0rwA_Ul11M-12">
          <mxGeometry relative="1" as="geometry">
            <mxPoint x="450" y="330" as="sourcePoint" />
            <mxPoint x="380" y="370" as="targetPoint" />
          </mxGeometry>
        </mxCell>
        <mxCell id="crkH9k9LLb0rwA_Ul11M-25" value="&amp;lt;extend&amp;gt;" style="edgeLabel;resizable=0;html=1;;align=center;verticalAlign=middle;" connectable="0" vertex="1" parent="crkH9k9LLb0rwA_Ul11M-24">
          <mxGeometry relative="1" as="geometry">
            <mxPoint x="4" as="offset" />
          </mxGeometry>
        </mxCell>
        <mxCell id="crkH9k9LLb0rwA_Ul11M-26" value="" style="endArrow=none;html=1;rounded=0;exitX=0.5;exitY=0.5;exitDx=0;exitDy=0;exitPerimeter=0;entryX=0;entryY=0.5;entryDx=0;entryDy=0;" edge="1" parent="1" source="crkH9k9LLb0rwA_Ul11M-2" target="crkH9k9LLb0rwA_Ul11M-12">
          <mxGeometry width="50" height="50" relative="1" as="geometry">
            <mxPoint x="113" y="416" as="sourcePoint" />
            <mxPoint x="260" y="370" as="targetPoint" />
          </mxGeometry>
        </mxCell>
        <mxCell id="crkH9k9LLb0rwA_Ul11M-27" value="Compilar información de vehiculos" style="ellipse;whiteSpace=wrap;html=1;" vertex="1" parent="1">
          <mxGeometry x="720" y="410" width="130" height="80" as="geometry" />
        </mxCell>
        <mxCell id="crkH9k9LLb0rwA_Ul11M-29" value="" style="endArrow=classic;html=1;rounded=0;dashed=1;entryX=1;entryY=1;entryDx=0;entryDy=0;exitX=0;exitY=0;exitDx=0;exitDy=0;" edge="1" parent="1" source="crkH9k9LLb0rwA_Ul11M-9" target="crkH9k9LLb0rwA_Ul11M-27">
          <mxGeometry relative="1" as="geometry">
            <mxPoint x="960" y="570" as="sourcePoint" />
            <mxPoint x="935" y="400" as="targetPoint" />
          </mxGeometry>
        </mxCell>
        <mxCell id="crkH9k9LLb0rwA_Ul11M-30" value="&amp;lt;extend&amp;gt;" style="edgeLabel;resizable=0;html=1;;align=center;verticalAlign=middle;" connectable="0" vertex="1" parent="crkH9k9LLb0rwA_Ul11M-29">
          <mxGeometry relative="1" as="geometry">
            <mxPoint x="4" as="offset" />
          </mxGeometry>
        </mxCell>
      </root>
    </mxGraphModel>
  </diagram>
</mxfile>
